<svg width="49" height="48" viewBox="0 0 49 48" fill="none" xmlns="http://www.w3.org/2000/svg">
<path d="M18.5 42V27.2C18.5 26.0799 18.5 25.5198 18.718 25.092C18.9097 24.7157 19.2157 24.4097 19.592 24.218C20.0198 24 20.5799 24 21.7 24H27.3C28.4201 24 28.9802 24 29.408 24.218C29.7843 24.4097 30.0903 24.7157 30.282 25.092C30.5 25.5198 30.5 26.0799 30.5 27.2V42M22.5354 5.528L8.97078 16.0782C8.06404 16.7835 7.61067 17.1361 7.28405 17.5777C6.99473 17.9689 6.7792 18.4096 6.64805 18.8781C6.5 19.407 6.5 19.9814 6.5 21.1301V35.6C6.5 37.8402 6.5 38.9603 6.93597 39.8159C7.31947 40.5686 7.93139 41.1805 8.68404 41.564C9.53968 42 10.6598 42 12.9 42H36.1C38.3402 42 39.4603 42 40.316 41.564C41.0686 41.1805 41.6805 40.5686 42.064 39.8159C42.5 38.9603 42.5 37.8402 42.5 35.6V21.1301C42.5 19.9814 42.5 19.407 42.3519 18.8781C42.2208 18.4096 42.0053 17.9689 41.7159 17.5777C41.3893 17.1361 40.936 16.7835 40.0292 16.0783L26.4646 5.528C25.762 4.98149 25.4106 4.70824 25.0227 4.6032C24.6804 4.51052 24.3196 4.51052 23.9773 4.6032C23.5894 4.70824 23.238 4.98149 22.5354 5.528Z" stroke="black" stroke-width="2" stroke-linecap="round" stroke-linejoin="round"/>
</svg>
